<?xml version="1.0" encoding="iso-8859-1"?>
<!-- Generator: Adobe Illustrator 19.0.0, SVG Export Plug-In . SVG Version: 6.00 Build 0)  -->
<svg version="1.1" id="Layer_1" xmlns="http://www.w3.org/2000/svg" xmlns:xlink="http://www.w3.org/1999/xlink" x="0px" y="0px"
	 viewBox="0 0 164.136 164.136" style="enable-background:new 0 0 164.136 164.136;" xml:space="preserve">
<g>
	<circle style="fill:#CE3B4B;" cx="82.068" cy="82.068" r="82.068"/>
	<g>
		<g>
			<g>
				<g>
					<path style="fill:#F7F1E6;" d="M97.81,126.942c0,2.092-1.315,3.806-2.925,3.806H44.324c-1.609,0-2.926-1.714-2.926-3.806
						v-89.75c0-2.092,1.316-3.805,2.926-3.805h50.561c1.609,0,2.925,1.713,2.925,3.805C97.81,37.192,97.81,126.942,97.81,126.942z"
						/>
					<path style="fill:#449F98;" d="M94.96,117.359c0,2.093-1.481,3.805-3.287,3.805H47.789c-1.807,0-3.287-1.712-3.287-3.805
						V47.478c0-2.091,1.479-3.804,3.287-3.804h43.884c1.805,0,3.287,1.713,3.287,3.804C94.96,47.478,94.96,117.359,94.96,117.359z"
						/>
				</g>
				<path style="fill:#E0DCD3;" d="M80.631,39.192c0,0.924-0.749,1.673-1.672,1.673h-18.71c-0.923,0-1.671-0.749-1.671-1.673l0,0
					c0-0.923,0.747-1.67,1.671-1.67h18.709C79.882,37.522,80.631,38.269,80.631,39.192L80.631,39.192z"/>
			</g>
			<g>
				<g>
					<ellipse style="fill:#FFFFFF;" cx="105.323" cy="68.794" rx="31.92" ry="26.959"/>
					<polygon style="fill:#FFFFFF;" points="80.375,85.146 74.472,99.635 105.973,95.701 					"/>
				</g>
			</g>
		</g>
		<g>
			<path style="fill:#E4E5E6;" d="M120.982,75.39c-1.353-1.856-11.476-5.396-11.476-5.396l-3.634,2.543l-4.933-2.694
				c0,0-10.212,3.691-11.566,5.547c-1.353,1.857-1.167,10.851-1.167,10.851h16.9h0.054h16.988
				C122.148,86.241,122.334,77.247,120.982,75.39z"/>
			<path style="fill:#7B9AA7;" d="M105.583,70.975c-3.58,0-4.713-1.146-4.713-1.146s1.312-0.526,4.878-0.498
				c2.474,0.019,3.8,0.65,3.8,0.65S109.16,70.975,105.583,70.975z"/>
			<rect x="101.959" y="67.876" style="fill:#DEC8AE;" width="6.805" height="3.459"/>
			<path style="fill:#F3DBBD;" d="M113.218,57.777c-0.049-0.007-0.097-0.01-0.146-0.011c-0.246-7.493-4.653-8.52-7.589-8.52
				c-2.938,0-7.248,1.026-7.495,8.52c-0.049,0.001-0.097,0.003-0.145,0.011c-0.889,0.122-1.501,1.262-1.368,2.546
				c0.133,1.285,0.961,2.228,1.849,2.107c0.019-0.003,0.036-0.006,0.055-0.012c0.495,2.381,1.327,3.947,1.772,4.514
				c0.605,0.774,3.73,2.423,5.332,2.423c1.601,0,4.82-1.649,5.428-2.423c0.443-0.567,1.274-2.133,1.771-4.514
				c0.018,0.005,0.036,0.008,0.054,0.012c0.889,0.121,1.716-0.822,1.849-2.107C114.718,59.04,114.105,57.9,113.218,57.777z"/>
			<path style="fill:#42240A;" d="M113.606,52.382c-1.358-4.088-4.234-5.65-6.223-3.448c-3.78-1.004-7.696-1.565-9.666,3.423
				c-1.167,2.95-0.259,5.385-0.187,5.518c0.134-0.056,0.286-0.095,0.457-0.108c0.458,1.124,0.894,1.959,1.267,1.273
				c0.375-0.686-0.244-2.98,0.461-3.904c1.687-2.205,2.873-0.047,5.751-0.047c2.877,0,4.073-1.342,5.845,0.047
				c0.914,0.718,0.086,3.218,0.46,3.904s0.808-0.149,1.269-1.273c0.178,0.014,0.433,0.076,0.572,0.136
				C113.703,57.649,114.749,55.816,113.606,52.382z"/>
			<path style="fill:#88A9B8;" d="M109.548,69.98c-0.526,0.221-0.743,0.331-4.138,0.331c-3.396,0-3.972-0.372-4.54-0.483
				c-0.345,0.185,4.311,13.224,4.311,13.224S109.785,70.404,109.548,69.98z"/>
			<path style="fill:#353B5A;" d="M107.336,71.322c0-0.701-0.599-1.193-1.229-1.193c-0.357,0-0.726-0.005-0.807-0.007l0,0
				c0,0-0.006,0-0.009,0c-0.002,0-0.008,0-0.008,0l0,0c-0.081,0.002-0.45,0.007-0.808,0.007c-0.628,0-1.228,0.492-1.228,1.193
				c0,1.114,0.67,1.367,0.948,1.564c-0.696,2.684,0.115,7.782,0.115,7.782l0.87,2.384l1.015-2.456c0,0,0.887-5.026,0.19-7.711
				C106.666,72.689,107.336,72.436,107.336,71.322z"/>
		</g>
	</g>
</g>
<g>
</g>
<g>
</g>
<g>
</g>
<g>
</g>
<g>
</g>
<g>
</g>
<g>
</g>
<g>
</g>
<g>
</g>
<g>
</g>
<g>
</g>
<g>
</g>
<g>
</g>
<g>
</g>
<g>
</g>
</svg>
