<?xml version="1.0" encoding="iso-8859-1"?>
<!-- Generator: Adobe Illustrator 19.0.0, SVG Export Plug-In . SVG Version: 6.00 Build 0)  -->
<svg version="1.1" id="Layer_1" xmlns="http://www.w3.org/2000/svg" xmlns:xlink="http://www.w3.org/1999/xlink" x="0px" y="0px"
	 viewBox="0 0 164.134 164.134" style="enable-background:new 0 0 164.134 164.134;" xml:space="preserve">
<g>
	<circle style="fill:#CE3B4B;" cx="82.067" cy="82.067" r="82.067"/>
	<g>
		<path style="fill:#E0DCD3;" d="M129.91,82.163h-6.649v-27.67c0-14.704-11.96-26.665-26.662-26.665
			c-14.705,0-26.667,11.962-26.667,26.665v8.118h-6.647v-8.118c0-18.37,14.942-33.313,33.314-33.313
			c18.367,0,33.311,14.944,33.311,33.313V82.163z"/>
		<path style="fill:#F7F1E6;" d="M96.528,101.476c0,15.544-12.601,28.144-28.142,28.144h-2.347c-15.541,0-28.142-12.6-28.142-28.144
			v-18.76c0-15.544,12.601-28.143,28.142-28.143h2.348c15.541,0,28.142,12.599,28.142,28.143L96.528,101.476L96.528,101.476z"/>
		<path style="fill:#E0DCD3;" d="M70.235,78.045c0,1.669-1.354,3.023-3.022,3.023l0,0c-1.669,0-3.022-1.354-3.022-3.023v-9.972
			c0-1.669,1.354-3.023,3.022-3.023l0,0c1.668,0,3.022,1.354,3.022,3.023V78.045z"/>
		<path style="fill:#F19C35;" d="M79.544,98.72h-7.317v-7.317c0-1.091-0.883-1.975-1.973-1.975h-6.082
			c-1.09,0-1.973,0.884-1.973,1.975v7.317h-7.318c-1.089,0-1.973,0.883-1.973,1.972v6.082c0,1.09,0.884,1.975,1.973,1.975h7.318
			v7.316c0,1.088,0.883,1.973,1.973,1.973h6.082c1.09,0,1.973-0.885,1.973-1.973v-7.316h7.317c1.09,0,1.974-0.885,1.974-1.975
			v-6.082C81.517,99.603,80.633,98.72,79.544,98.72z"/>
	</g>
</g>
<g>
</g>
<g>
</g>
<g>
</g>
<g>
</g>
<g>
</g>
<g>
</g>
<g>
</g>
<g>
</g>
<g>
</g>
<g>
</g>
<g>
</g>
<g>
</g>
<g>
</g>
<g>
</g>
<g>
</g>
</svg>
