<?xml version="1.0" encoding="iso-8859-1"?>
<!-- Generator: Adobe Illustrator 19.0.0, SVG Export Plug-In . SVG Version: 6.00 Build 0)  -->
<svg version="1.1" id="Layer_1" xmlns="http://www.w3.org/2000/svg" xmlns:xlink="http://www.w3.org/1999/xlink" x="0px" y="0px"
	 viewBox="0 0 491.52 491.52" style="enable-background:new 0 0 491.52 491.52;" xml:space="preserve">
<circle style="fill:#EA8953;" cx="245.76" cy="245.76" r="245.76"/>
<path style="opacity:0.1;enable-background:new    ;" d="M491.52,245.759c0-10.291-0.707-20.411-1.935-30.37L383.283,109.117
	l-0.512-0.512c-2.304-2.304-5.427-3.635-8.858-3.635H117.606c-6.963,0-12.646,5.632-12.646,12.646v189.747
	c0,3.584,1.536,6.861,3.942,9.114l21.555,21.555l-7.526,15.36l-17.971,2.611l13.005,12.698l-3.072,17.869l103.382,103.382
	c9.028,1.006,18.189,1.568,27.485,1.568C381.49,491.519,491.52,381.489,491.52,245.759z"/>
<path style="fill:#64798A;" d="M373.918,104.96H117.602c-6.982,0-12.642,5.66-12.642,12.642v189.755
	c0,6.982,5.66,12.642,12.642,12.642h256.315c6.981,0,12.642-5.66,12.642-12.642V117.602
	C386.56,110.62,380.899,104.96,373.918,104.96z"/>
<g>
	<rect x="125.44" y="157.302" style="fill:#EBF0F3;" width="240.64" height="142.218"/>
	<rect x="125.44" y="123.136" style="fill:#EBF0F3;" width="172.068" height="14.556"/>
</g>
<rect x="125.44" y="291.825" style="fill:#D5D6DB;" width="240.64" height="7.695"/>
<circle style="fill:#FCD462;" cx="313.395" cy="130.401" r="7.276"/>
<circle style="fill:#44C4A1;" cx="336.128" cy="130.401" r="7.276"/>
<circle style="fill:#E56353;" cx="358.81" cy="130.401" r="7.276"/>
<rect x="138.445" y="167.624" style="fill:#FCD462;" width="58.281" height="45.394"/>
<rect x="138.445" y="204.129" style="fill:#F6C358;" width="58.281" height="8.893"/>
<rect x="138.445" y="232.602" style="fill:#27A2DB;" width="58.281" height="45.394"/>
<rect x="138.445" y="269.107" style="fill:#2D93BA;" width="58.281" height="8.893"/>
<g>
	<rect x="216.576" y="172.585" style="fill:#D5D6DB;" width="134.973" height="10.24"/>
	<rect x="216.576" y="197.821" style="fill:#D5D6DB;" width="134.973" height="10.24"/>
	<rect x="216.576" y="237.568" style="fill:#D5D6DB;" width="134.973" height="10.24"/>
	<rect x="216.576" y="262.81" style="fill:#D5D6DB;" width="134.973" height="10.24"/>
</g>
<g>
	<polygon style="fill:#FCD462;" points="130.939,337.144 138.968,353.411 156.919,356.019 143.929,368.681 146.996,386.56 
		130.939,378.119 114.883,386.56 117.95,368.681 104.96,356.019 122.911,353.411 	"/>
	<polygon style="fill:#FCD462;" points="188.35,337.144 196.378,353.411 214.329,356.019 201.339,368.681 204.406,386.56 
		188.35,378.119 172.294,386.56 175.36,368.681 162.37,356.019 180.322,353.411 	"/>
	<polygon style="fill:#FCD462;" points="245.76,337.144 253.788,353.411 271.739,356.019 258.75,368.681 261.816,386.56 
		245.76,378.119 229.704,386.56 232.77,368.681 219.781,356.019 237.732,353.411 	"/>
</g>
<polygon style="fill:#F6C358;" points="303.17,337.144 311.198,353.411 329.15,356.019 316.16,368.681 319.226,386.56 
	303.17,378.119 287.114,386.56 290.181,368.681 277.191,356.019 295.142,353.411 "/>
<polygon style="fill:#D5D6DB;" points="360.581,337.144 368.609,353.411 386.56,356.019 373.57,368.681 376.637,386.56 
	360.581,378.119 344.524,386.56 347.591,368.681 334.601,356.019 352.552,353.411 "/>
<g>
</g>
<g>
</g>
<g>
</g>
<g>
</g>
<g>
</g>
<g>
</g>
<g>
</g>
<g>
</g>
<g>
</g>
<g>
</g>
<g>
</g>
<g>
</g>
<g>
</g>
<g>
</g>
<g>
</g>
</svg>
