<?xml version="1.0" encoding="iso-8859-1"?>
<!-- Generator: Adobe Illustrator 19.0.0, SVG Export Plug-In . SVG Version: 6.00 Build 0)  -->
<svg version="1.1" id="Layer_1" xmlns="http://www.w3.org/2000/svg" xmlns:xlink="http://www.w3.org/1999/xlink" x="0px" y="0px"
	 viewBox="0 0 511.999 511.999" style="enable-background:new 0 0 511.999 511.999;" xml:space="preserve">
<g>
	<path style="fill:#7A609E;" d="M181.924,200.026c0-20.501-16.773-37.274-37.274-37.274h-30.162V137.1h0.326l15.604-17.185
		c5.858-6.451,9.103-14.854,9.103-23.567V60.128c0-20.984-17.011-37.995-37.995-37.995H80.399
		c-20.984,0-37.995,17.011-37.995,37.995v36.221c0,8.715,3.245,17.116,9.103,23.567L67.11,137.1h0.326v25.651H37.274
		C16.773,162.752,0,179.525,0,200.026v51.259h174.475L181.924,200.026z"/>
	<path style="fill:#7A609E;" d="M330.075,200.026c0-20.501,16.773-37.274,37.274-37.274h30.162V137.1h-0.326l-15.604-17.185
		c-5.858-6.451-9.103-14.854-9.103-23.567V60.128c0-20.984,17.011-37.995,37.995-37.995H431.6c20.984,0,37.995,17.011,37.995,37.995
		v36.221c0,8.715-3.245,17.116-9.103,23.567L444.889,137.1h-0.326v25.651h30.162c20.501,0,37.274,16.773,37.274,37.274v51.259
		H347.955L330.075,200.026z"/>
</g>
<path style="fill:#52D6C6;" d="M243.897,39.38c-23.634,0-42.794,19.159-42.794,42.794v40.794c0,9.815,3.655,19.277,10.253,26.543
	l17.574,19.355h0.367v28.89h-33.97c-23.089,0-41.98,18.891-41.98,41.98v57.731h204.897v-57.731c0-23.089-18.891-41.98-41.98-41.98
	h-33.97v-28.89h0.367l17.574-19.355c6.597-7.266,10.253-16.729,10.253-26.543V82.173c0-23.635-19.159-42.794-42.794-42.794
	C267.694,39.38,243.897,39.38,243.897,39.38z"/>
<g style="opacity:0.1;">
	<path d="M316.262,197.756h-32.027c23.089,0,41.98,18.891,41.98,41.98v57.731h32.027v-57.731
		C358.242,216.647,339.352,197.756,316.262,197.756z"/>
	<path d="M278.459,82.173v40.794c0,9.815-3.655,19.277-10.253,26.543l-17.574,19.355h-0.367v28.89h32.027v-28.89h0.367
		l17.574-19.355c6.597-7.266,10.253-16.729,10.253-26.543V82.173c0-23.634-19.159-42.794-42.794-42.794h-23.796
		c-1.389,0-2.761,0.072-4.116,0.201C261.484,41.653,278.459,59.928,278.459,82.173z"/>
</g>
<g>
	<polygon style="fill:#FDC00F;" points="258.982,358.093 280.976,400.664 328.26,408.426 294.568,442.498 301.798,489.866 
		258.982,468.353 216.167,489.866 223.397,442.498 189.705,408.426 236.99,400.664 	"/>
	<polygon style="fill:#FDC00F;" points="432.694,299.744 454.687,342.314 501.971,350.077 468.28,384.148 475.51,431.516 
		432.694,410.003 389.879,431.516 397.109,384.148 363.417,350.077 410.701,342.314 	"/>
	<polygon style="fill:#FDC00F;" points="85.271,299.744 107.265,342.314 154.549,350.077 120.857,384.148 128.087,431.516 
		85.271,410.003 42.455,431.516 49.685,384.148 15.994,350.077 63.279,342.314 	"/>
</g>
<g>
</g>
<g>
</g>
<g>
</g>
<g>
</g>
<g>
</g>
<g>
</g>
<g>
</g>
<g>
</g>
<g>
</g>
<g>
</g>
<g>
</g>
<g>
</g>
<g>
</g>
<g>
</g>
<g>
</g>
</svg>
